<?xml version="1.0" encoding="UTF-8"?>
<svg id="Logo" xmlns="http://www.w3.org/2000/svg" viewBox="0 0 788.22 788.22">
  <defs>
    <style>
      .cls-1 {
        fill: #634f9c;
      }

      .cls-2 {
        fill: #c54793;
      }

      .cls-3 {
        fill: #d43f8b;
      }

      .cls-4 {
        fill: #685ca5;
      }

      .cls-5 {
        fill: #fff;
        font-family: Avenue-de-Madison, 'Avenue de Madison';
        font-size: 537.25px;
      }

      .cls-6 {
        fill: #4f4e9c;
      }

      .cls-7 {
        fill: #ab5099;
      }

      .cls-8 {
        fill: #517db9;
      }

      .cls-9 {
        fill: #5394b1;
      }

      .cls-10 {
        fill: #4e58a4;
      }

      .cls-11 {
        fill: #e13c78;
      }
    </style>
  </defs>
  <g id="L">
    <g>
      <path class="cls-7" d="M782.66,83.34c-6.45-20.39-18.23-38.42-33.71-52.44,2.05,2.41,4.11,4.91,6.15,7.53,12.42,15.89,21.25,31.44,27.56,44.91Z"/>
      <path class="cls-2" d="M511.76,0c38.73,33.78,80.46,74.7,122.02,123.76,71.3,84.18,120.5,166.84,154.44,235.53V119.41c0-12.57-1.95-24.69-5.55-36.07-6.31-13.48-15.14-29.02-27.56-44.91-2.04-2.61-4.1-5.11-6.15-7.53-21.19-19.2-49.31-30.9-80.16-30.9h-157.04Z"/>
      <path class="cls-3" d="M511.76,0h-232.07c77.57,75.45,158.1,159.62,239.41,253.1,103.54,119.02,192.67,235.06,269.11,344.06v-237.86c-33.94-68.69-83.14-151.35-154.44-235.53-41.56-49.06-83.29-89.99-122.02-123.76Z"/>
      <path class="cls-11" d="M279.69,0H119.41c-3.39,0-6.74.15-10.06.43,92.74,100.51,188.55,212.1,284.75,335.34,120.88,154.85,224.43,305.14,313.01,446.18,47.16-15.96,81.1-60.59,81.1-113.14v-71.64c-76.44-109.01-165.56-225.04-269.11-344.06C437.79,159.62,357.26,75.45,279.69,0Z"/>
      <path class="cls-9" d="M109.36.43c-24,2-45.98,11.09-63.85,25.19,70.41,94.08,142.39,197.82,213.59,311.48,99.33,158.56,180.99,310.64,248.27,451.12h161.42c13.4,0,26.29-2.21,38.31-6.28-88.57-141.04-192.13-291.32-313.01-446.18C297.91,212.53,202.09,100.94,109.36.43Z"/>
      <path class="cls-8" d="M45.51,25.61C23.93,42.64,8.36,66.96,2.53,94.86c73.24,94.89,149.4,202.62,224.58,323.56,80.96,130.25,147.75,254.89,202.94,369.79h77.34c-67.28-140.48-148.94-292.56-248.27-451.12C187.91,223.43,115.93,119.69,45.51,25.61Z"/>
      <path class="cls-10" d="M2.53,94.86c-1.66,7.92-2.53,16.13-2.53,24.55v120.15c59.89,75.93,122.58,162.99,184.44,261.53,63.56,101.25,115.85,198.08,158.93,287.12h86.67c-55.18-114.9-121.98-239.53-202.94-369.79C151.93,297.48,75.77,189.75,2.53,94.86Z"/>
      <path class="cls-6" d="M0,239.56v197.24c34.56,40.22,70.32,85.56,105.77,136.29,53.07,75.93,95.01,148.95,128.22,215.12h109.37c-43.07-89.05-95.37-185.87-158.93-287.12C122.58,402.55,59.89,315.49,0,239.56Z"/>
      <path class="cls-1" d="M0,436.8v214.47c16.68,15.73,36.31,36.98,55.11,64.49,17.29,25.31,29.37,49.33,37.87,69.51,8.51,1.92,17.35,2.94,26.44,2.94h114.58c-33.21-66.17-75.15-139.19-128.22-215.12-35.46-50.73-71.21-96.07-105.77-136.29Z"/>
      <path class="cls-4" d="M0,651.27v17.53c0,56.86,39.75,104.44,92.98,116.47-8.49-20.18-20.58-44.2-37.87-69.51-18.79-27.51-38.42-48.76-55.11-64.49Z"/>
      <text class="cls-5" transform="translate(183.37 590.29) scale(1 1.12)"><tspan x="0" y="0">L</tspan></text>
    </g>
  </g>
</svg>