<?xml version="1.0" encoding="UTF-8"?>
<svg id="Logo" xmlns="http://www.w3.org/2000/svg" viewBox="0 0 788.22 788.22">
  <defs>
    <style>
      .cls-1 {
        fill: #634f9c;
      }

      .cls-2 {
        fill: #c54793;
      }

      .cls-3 {
        fill: #fff;
      }

      .cls-4 {
        fill: #d43f8b;
      }

      .cls-5 {
        fill: #685ca5;
      }

      .cls-6 {
        fill: #4f4e9c;
      }

      .cls-7 {
        fill: #ab5099;
      }

      .cls-8 {
        fill: #517db9;
      }

      .cls-9 {
        fill: #5394b1;
      }

      .cls-10 {
        fill: #4e58a4;
      }

      .cls-11 {
        fill: #e13c78;
      }
    </style>
  </defs>
  <g id="L">
    <g>
      <path class="cls-7" d="M782.66,83.34c-6.45-20.39-18.23-38.42-33.71-52.44,2.05,2.41,4.11,4.91,6.15,7.53,12.42,15.89,21.25,31.44,27.56,44.91Z"/>
      <path class="cls-2" d="M511.76,0c38.73,33.78,80.46,74.7,122.02,123.76,71.3,84.18,120.5,166.84,154.44,235.53V119.41c0-12.57-1.95-24.69-5.55-36.07-6.31-13.48-15.14-29.02-27.56-44.91-2.04-2.61-4.1-5.11-6.15-7.53-21.19-19.2-49.31-30.9-80.16-30.9h-157.04Z"/>
      <path class="cls-4" d="M511.76,0h-232.07c77.57,75.45,158.1,159.62,239.41,253.1,103.54,119.02,192.67,235.06,269.11,344.06v-237.86c-33.94-68.69-83.14-151.35-154.44-235.53-41.56-49.06-83.29-89.99-122.02-123.76Z"/>
      <path class="cls-11" d="M279.69,0H119.41c-3.39,0-6.74.15-10.06.43,92.74,100.51,188.55,212.1,284.75,335.34,120.88,154.85,224.43,305.14,313.01,446.18,47.16-15.96,81.1-60.59,81.1-113.14v-71.64c-76.44-109.01-165.56-225.04-269.11-344.06C437.79,159.62,357.26,75.45,279.69,0Z"/>
      <path class="cls-9" d="M109.36.43c-24,2-45.98,11.09-63.85,25.19,70.41,94.08,142.39,197.82,213.59,311.48,99.33,158.56,180.99,310.64,248.27,451.12h161.42c13.4,0,26.29-2.21,38.31-6.28-88.57-141.04-192.13-291.32-313.01-446.18C297.91,212.53,202.09,100.94,109.36.43Z"/>
      <path class="cls-8" d="M45.51,25.61C23.93,42.64,8.36,66.96,2.53,94.86c73.24,94.89,149.4,202.62,224.58,323.56,80.96,130.25,147.75,254.89,202.94,369.79h77.34c-67.28-140.48-148.94-292.56-248.27-451.12C187.91,223.43,115.93,119.69,45.51,25.61Z"/>
      <path class="cls-10" d="M2.53,94.86c-1.66,7.92-2.53,16.13-2.53,24.55v120.15c59.89,75.93,122.58,162.99,184.44,261.53,63.56,101.25,115.85,198.08,158.93,287.12h86.67c-55.18-114.9-121.98-239.53-202.94-369.79C151.93,297.48,75.77,189.75,2.53,94.86Z"/>
      <path class="cls-6" d="M0,239.56v197.24c34.56,40.22,70.32,85.56,105.77,136.29,53.07,75.93,95.01,148.95,128.22,215.12h109.37c-43.07-89.05-95.37-185.87-158.93-287.12C122.58,402.55,59.89,315.49,0,239.56Z"/>
      <path class="cls-1" d="M0,436.8v214.47c16.68,15.73,36.31,36.98,55.11,64.49,17.29,25.31,29.37,49.33,37.87,69.51,8.51,1.92,17.35,2.94,26.44,2.94h114.58c-33.21-66.17-75.15-139.19-128.22-215.12-35.46-50.73-71.21-96.07-105.77-136.29Z"/>
      <path class="cls-5" d="M0,651.27v17.53c0,56.86,39.75,104.44,92.98,116.47-8.49-20.18-20.58-44.2-37.87-69.51-18.79-27.51-38.42-48.76-55.11-64.49Z"/>
      <path class="cls-3" d="M546.15,148.47c9.11-2.18,18.32-3.09,27.59-2.73,9.28.37,17.83,2.64,25.64,6.82,7.81,4.18,14.24,10.36,19.29,18.55,5.04,8.18,7.89,18.82,8.55,31.91.65,21.82-2.93,41.37-10.74,58.64-7.81,17.28-17.91,33.55-30.28,48.82-8.79,11.28-20.44,22.91-34.92,34.91-14.49,12-30.04,23.28-46.64,33.82-16.61,10.55-33.46,19.73-50.55,27.55-17.09,7.82-32.65,13.18-46.64,16.09-.66.73-1.06,1.55-1.22,2.46-.17.91-.57,1.91-1.22,3-9.45,22.91-20.19,44.73-32.24,65.45-12.05,20.73-25.89,41.1-41.51,61.09,14.65,4.36,28.65,8.92,42,13.64,13.35,4.73,27.18,8,41.51,9.82,15.63,1.82,30.6-.27,44.93-6.27,14.32-6,27.51-15.36,39.56-28.09l11.23-12.55c.32-.36,1.3-.55,2.93-.55-4.88,29.1-17.42,51.64-37.61,67.64-13.35,10.91-26.95,17.63-40.78,20.18-13.84,2.54-27.76,2.27-41.76-.82-14-3.09-27.92-8.1-41.76-15-13.84-6.91-27.27-14.54-40.29-22.91-8.79,10.54-19.22,18.72-31.26,24.54-12.05,5.81-23.61,9.36-34.68,10.64-11.07,1.27-20.68.36-28.82-2.73-8.14-3.09-12.87-8.1-14.16-15-1.63-7.27-.9-13.91,2.2-19.91,3.09-6,7.49-11.18,13.19-15.54,5.69-4.36,12.37-8,20.02-10.91,7.65-2.91,15.38-4.72,23.2-5.46,6.51-.72,12.7-.9,18.56-.54,5.86.37,12.37,1.28,19.54,2.73,11.07-17.45,20.92-36.18,29.55-56.18,8.62-19.99,16.36-40,23.2-60-2.28,1.09-6.19,1.91-11.72,2.45-5.54.55-11.65.73-18.32.55-6.68-.18-13.43-.63-20.27-1.36-6.84-.72-12.7-1.99-17.58-3.82-10.75-3.27-19.29-8.54-25.64-15.82-6.35-7.27-10.5-15.27-12.45-24-1.95-8.73-1.79-17.73.49-27,2.27-9.27,6.67-17.73,13.19-25.36,3.91-5.09,8.13-9.63,12.7-13.64,4.56-4,10.58-6.54,18.07-7.64-6.84,13.09-9.45,25.36-7.81,36.82,1.62,11.45,6.02,21.46,13.19,30,7.16,8.55,16.44,15.46,27.84,20.73,11.39,5.28,23.44,8.45,36.14,9.54,2.27-6.18,4.4-11.63,6.35-16.36,1.95-4.72,4.07-10.36,6.35-16.91,10.42-28.72,22.22-56.54,35.41-83.46,13.19-26.91,28.73-52.18,46.64-75.82,12.37-16.72,25.96-31.54,40.78-44.45,14.81-12.9,31.82-22.09,51.04-27.55ZM219.89,583.19c-3.59,5.82-3.17,9.36,1.22,10.64,4.4,1.27,10.42.9,18.07-1.09,7.65-2,15.87-5.36,24.67-10.09,8.79-4.72,15.79-10.18,21-16.36-5.86-1.09-11.72-1.91-17.58-2.46-5.86-.54-11.56-.27-17.09.82-5.54,1.09-10.91,3.09-16.12,6-5.21,2.92-9.94,7.09-14.16,12.55ZM413.3,408.65c.65,0,.65-.18,0-.55v.55ZM586.69,237.92c7.81-21.45,10.33-38.81,7.57-52.09-2.77-13.27-8.63-21.82-17.58-25.64-8.96-3.82-19.7-2.63-32.23,3.55-12.54,6.19-24.67,18-36.39,35.46-8.47,13.09-16.36,26.82-23.69,41.18-7.33,14.37-14.09,29-20.27,43.91-9.12,19.64-17.67,39.64-25.64,60-7.98,20.37-16.04,40.91-24.18,61.64,24.74-10.18,48.67-23.27,71.8-39.27,23.12-16,43.3-35.09,60.56-57.27,8.79-10.54,16.52-21.9,23.2-34.09,6.67-12.18,12.29-24.63,16.85-37.36Z"/>
    </g>
  </g>
</svg>